  0
SECTION
  2
HEADER
  9
$ACADVER
  1
AC1009
  9
$INSBASE
 10
0.0
 20
0.0
 30
0.0
  9
$EXTMIN
 10
0.0
 20
0.0
 30
0.0
  9
$EXTMAX
 10
0.0
 20
0.0
 30
0.0
  0
ENDSEC
  0
SECTION
  2
TABLES
  0
TABLE
  2
VPORT
 70
0
  0
ENDTAB
  0
TABLE
  2
LTYPE
 70
1
  0
LTYPE
  2
CONTINUOUS
 70
0
  3
Solid line
 72
65
 73
0
 40
0.0
  0
ENDTAB
  0
TABLE
  2
LAYER
 70
1
  0
LAYER
  2
0
 70
64
 62
7
  6
continuous
  0
ENDTAB
  0
TABLE
  2
STYLE
 70
1
  0
STYLE
  2
STANDARD
 70
0
 40
0
 41
1.0
 50
0.0
 71
0
 42
1
 3
ARIAL.TTF
 4

  0
ENDTAB
  0
TABLE
  2
VIEW
 70
0
  0
ENDTAB
  0
ENDSEC
  0
SECTION
  2
BLOCKS
  0
BLOCK
  8
0
  2
FUSION
 70
0
 10
0.0
 20
0.0
 30
0.0
  3
FUSION
  0
ARC
  8
0
 62
0
 10
56.0
 20
0.0
 30
0.0
 40
17.5
 50
-77.0243480872244
 51
77.02434808722437
  0
ARC
  8
0
 62
0
 10
75.0
 20
-37.0
 30
0.0
 40
25.0
 50
127.07242923850832
 51
-158.4275256668855
  0
ARC
  8
0
 62
0
 10
75.0
 20
37.0
 30
0.0
 40
25.0
 50
158.42752566688537
 51
-127.07242923850832
  0
ARC
  8
0
 62
0
 10
41.0
 20
60.0
 30
0.0
 40
17.5
 50
-52.095111146412464
 51
173.80878721207313
  0
ARC
  8
0
 62
0
 10
0.0
 20
75.0
 30
0.0
 40
27.0
 50
-90.00000000000001
 51
-29.055381790273458
  0
LINE
  8
0
 62
0
 10
1.65e-15
 20
48.0
 30
0.0
 11
1.65e-15
 21
-48.0
 31
0.0
  0
ARC
  8
0
 62
0
 10
0.0
 20
-75.0
 30
0.0
 40
27.0
 50
29.055381790273433
 51
90.00000000000003
  0
ARC
  8
0
 62
0
 10
41.0
 20
-60.0
 30
0.0
 40
17.5
 50
-173.80878721207324
 51
52.09511114641252
  0
CIRCLE
  8
0
 62
0
 10
41.0
 20
-60.0
 30
0.0
 40
2.1
  0
CIRCLE
  8
0
 62
0
 10
41.0
 20
60.0
 30
0.0
 40
2.1
  0
CIRCLE
  8
0
 62
0
 10
56.0
 20
0.0
 30
0.0
 40
2.1
  0
CIRCLE
  8
0
 62
0
 10
8.0
 20
30.0
 30
0.0
 40
1.55
  0
CIRCLE
  8
0
 62
0
 10
8.0
 20
-30.0
 30
0.0
 40
1.55
  0
CIRCLE
  8
0
 62
0
 10
8.0
 20
42.0
 30
0.0
 40
1.55
  0
CIRCLE
  8
0
 62
0
 10
8.0
 20
-42.0
 30
0.0
 40
1.55
  0
CIRCLE
  8
0
 62
0
 10
26.0
 20
-17.5
 30
0.0
 40
1.5
  0
CIRCLE
  8
0
 62
0
 10
26.0
 20
17.5
 30
0.0
 40
1.5
  0
CIRCLE
  8
0
 62
0
 10
30.0
 20
-60.0
 30
0.0
 40
1.0
  0
CIRCLE
  8
0
 62
0
 10
52.0
 20
-60.0
 30
0.0
 40
1.0
  0
CIRCLE
  8
0
 62
0
 10
40.99999999999999
 20
-71.0
 30
0.0
 40
1.0
  0
CIRCLE
  8
0
 62
0
 10
40.99999999999999
 20
-49.0
 30
0.0
 40
1.0
  0
CIRCLE
  8
0
 62
0
 10
45.0
 20
0.0
 30
0.0
 40
1.0
  0
CIRCLE
  8
0
 62
0
 10
67.0
 20
0.0
 30
0.0
 40
1.0
  0
CIRCLE
  8
0
 62
0
 10
56.0
 20
-11.0
 30
0.0
 40
1.0
  0
CIRCLE
  8
0
 62
0
 10
56.0
 20
11.0
 30
0.0
 40
1.0
  0
CIRCLE
  8
0
 62
0
 10
30.0
 20
60.0
 30
0.0
 40
1.0
  0
CIRCLE
  8
0
 62
0
 10
52.0
 20
60.0
 30
0.0
 40
1.0
  0
CIRCLE
  8
0
 62
0
 10
41.0
 20
49.0
 30
0.0
 40
1.0
  0
CIRCLE
  8
0
 62
0
 10
41.0
 20
71.0
 30
0.0
 40
1.0
  0
ARC
  8
0
 62
0
 10
-56.0
 20
0.0
 30
0.0
 40
17.5
 50
102.9756519127756
 51
-102.97565191277563
  0
ARC
  8
0
 62
0
 10
-75.0
 20
-37.0
 30
0.0
 40
25.0
 50
-21.57247433311463
 51
52.92757076149169
  0
ARC
  8
0
 62
0
 10
-41.0
 20
-60.0
 30
0.0
 40
17.5
 50
127.90488885358755
 51
-6.191212787926877
  0
ARC
  8
0
 62
0
 10
0.0
 20
-75.0
 30
0.0
 40
27.0
 50
89.99999999999999
 51
150.94461820972654
  0
ARC
  8
0
 62
0
 10
0.0
 20
75.0
 30
0.0
 40
27.0
 50
-150.94461820972657
 51
-89.99999999999999
  0
ARC
  8
0
 62
0
 10
-41.0
 20
60.0
 30
0.0
 40
17.5
 50
6.1912127879267596
 51
-127.9048888535875
  0
ARC
  8
0
 62
0
 10
-75.0
 20
37.0
 30
0.0
 40
25.0
 50
-52.92757076149169
 51
21.572474333114528
  0
CIRCLE
  8
0
 62
0
 10
-41.0
 20
60.0
 30
0.0
 40
2.1
  0
CIRCLE
  8
0
 62
0
 10
-41.0
 20
-60.0
 30
0.0
 40
2.1
  0
CIRCLE
  8
0
 62
0
 10
-56.0
 20
0.0
 30
0.0
 40
2.1
  0
CIRCLE
  8
0
 62
0
 10
-8.0
 20
-30.0
 30
0.0
 40
1.55
  0
CIRCLE
  8
0
 62
0
 10
-8.0
 20
30.0
 30
0.0
 40
1.55
  0
CIRCLE
  8
0
 62
0
 10
-8.0
 20
-42.0
 30
0.0
 40
1.55
  0
CIRCLE
  8
0
 62
0
 10
-8.0
 20
42.0
 30
0.0
 40
1.55
  0
CIRCLE
  8
0
 62
0
 10
-26.0
 20
17.5
 30
0.0
 40
1.5
  0
CIRCLE
  8
0
 62
0
 10
-26.0
 20
-17.5
 30
0.0
 40
1.5
  0
CIRCLE
  8
0
 62
0
 10
-30.0
 20
60.0
 30
0.0
 40
1.0
  0
CIRCLE
  8
0
 62
0
 10
-52.0
 20
60.0
 30
0.0
 40
1.0
  0
CIRCLE
  8
0
 62
0
 10
-40.99999999999999
 20
71.0
 30
0.0
 40
1.0
  0
CIRCLE
  8
0
 62
0
 10
-40.99999999999999
 20
49.0
 30
0.0
 40
1.0
  0
CIRCLE
  8
0
 62
0
 10
-45.0
 20
0.0
 30
0.0
 40
1.0
  0
CIRCLE
  8
0
 62
0
 10
-67.0
 20
0.0
 30
0.0
 40
1.0
  0
CIRCLE
  8
0
 62
0
 10
-56.0
 20
11.0
 30
0.0
 40
1.0
  0
CIRCLE
  8
0
 62
0
 10
-56.0
 20
-11.0
 30
0.0
 40
1.0
  0
CIRCLE
  8
0
 62
0
 10
-30.0
 20
-60.0
 30
0.0
 40
1.0
  0
CIRCLE
  8
0
 62
0
 10
-52.0
 20
-60.0
 30
0.0
 40
1.0
  0
CIRCLE
  8
0
 62
0
 10
-41.0
 20
-49.0
 30
0.0
 40
1.0
  0
CIRCLE
  8
0
 62
0
 10
-41.0
 20
-71.0
 30
0.0
 40
1.0
  0
ENDBLK
  0
ENDSEC
  0
SECTION
  2
ENTITIES
  0
INSERT
  2
FUSION
  8
0
 62
0
 10
0.0
 20
0.0
 30
0.0
  0
ENDSEC
  0
EOF
