  0
SECTION
  2
HEADER
  9
$ACADVER
  1
AC1009
  9
$INSBASE
 10
0.0
 20
0.0
 30
0.0
  9
$EXTMIN
 10
0.0
 20
0.0
 30
0.0
  9
$EXTMAX
 10
0.0
 20
0.0
 30
0.0
  0
ENDSEC
  0
SECTION
  2
TABLES
  0
TABLE
  2
VPORT
 70
0
  0
ENDTAB
  0
TABLE
  2
LTYPE
 70
1
  0
LTYPE
  2
CONTINUOUS
 70
0
  3
Solid line
 72
65
 73
0
 40
0.0
  0
ENDTAB
  0
TABLE
  2
LAYER
 70
1
  0
LAYER
  2
0
 70
64
 62
7
  6
continuous
  0
ENDTAB
  0
TABLE
  2
STYLE
 70
1
  0
STYLE
  2
STANDARD
 70
0
 40
0
 41
1.0
 50
0.0
 71
0
 42
1
 3
ARIAL.TTF
 4

  0
ENDTAB
  0
TABLE
  2
VIEW
 70
0
  0
ENDTAB
  0
ENDSEC
  0
SECTION
  2
BLOCKS
  0
BLOCK
  8
0
  2
FILLET001
 70
0
 10
0.0
 20
0.0
 30
0.0
  3
FILLET001
  0
POLYLINE
  8
0
 62
0
 70
0
 66
1
 10
0.0
 20
0.0
 30
0.0
  0
VERTEX
  8
0
 10
-22.743460670837003
 20
6.549089842539847
 30
0.0
  0
VERTEX
  8
0
 10
-27.118395136797908
 20
4.301930498564328
 30
0.0
  0
VERTEX
  8
0
 10
-31.209658350007757
 20
1.9412030907583464
 30
0.0
  0
VERTEX
  8
0
 10
-35.04904198874017
 20
-0.5267339731581
 30
0.0
  0
VERTEX
  8
0
 10
-38.66833773126875
 20
-3.0955222854650266
 30
0.0
  0
VERTEX
  8
0
 10
-42.09933725586713
 20
-5.758803438442435
 30
0.0
  0
VERTEX
  8
0
 10
-45.373832240808895
 20
-8.510219024370333
 30
0.0
  0
VERTEX
  8
0
 10
-48.52630469267042
 20
-11.362074773111482
 30
0.0
  0
VERTEX
  8
0
 10
-51.60336107309646
 20
-14.410789753885975
 30
0.0
  0
VERTEX
  8
0
 10
-54.65502183360476
 20
-17.776467571601003
 30
0.0
  0
VERTEX
  8
0
 10
-57.73130761609106
 20
-21.579213151909755
 30
0.0
  0
VERTEX
  8
0
 10
-60.88223906245108
 20
-25.939131420465415
 30
0.0
  0
VERTEX
  8
0
 10
-64.15783681458055
 20
-30.9763273029212
 30
0.0
  0
VERTEX
  8
0
 10
-67.60812151437521
 20
-36.81090572493028
 30
0.0
  0
SEQEND
  8
0
  0
POLYLINE
  8
0
 62
0
 70
0
 66
1
 10
0.0
 20
0.0
 30
0.0
  0
VERTEX
  8
0
 10
-22.743460670836978
 20
6.549089842539857
 30
0.0
  0
VERTEX
  8
0
 10
-19.843671398330226
 20
6.389369028916888
 30
0.0
  0
VERTEX
  8
0
 10
-18.437941
 20
3.8480496005113025
 30
0.0
  0
SEQEND
  8
0
  0
ARC
  8
0
 62
0
 10
-66.0
 20
-38.0
 30
0.0
 40
2.0
 50
143.51964470866034
 51
-36.48035529133967
  0
LINE
  8
0
 62
0
 10
-18.437941
 20
3.8480496005112936
 30
0.0
 11
-18.437941
 21
-9.053342532560059
 31
0.0
  0
POLYLINE
  8
0
 62
0
 70
0
 66
1
 10
0.0
 20
0.0
 30
0.0
  0
VERTEX
  8
0
 10
-20.788632984236703
 20
-11.982232953976592
 30
0.0
  0
VERTEX
  8
0
 10
-24.965451468371935
 20
-13.037576422874196
 30
0.0
  0
VERTEX
  8
0
 10
-29.062395229289162
 20
-14.34020735584712
 30
0.0
  0
VERTEX
  8
0
 10
-33.09189670306651
 20
-15.90223043555644
 30
0.0
  0
VERTEX
  8
0
 10
-37.06638832578211
 20
-17.735750344663227
 30
0.0
  0
VERTEX
  8
0
 10
-40.99830253351408
 20
-19.85287176582855
 30
0.0
  0
VERTEX
  8
0
 10
-44.900071762340545
 20
-22.265699381713475
 30
0.0
  0
VERTEX
  8
0
 10
-48.78412844833964
 20
-24.986337874979082
 30
0.0
  0
VERTEX
  8
0
 10
-52.662905027589474
 20
-28.02689192828644
 30
0.0
  0
VERTEX
  8
0
 10
-56.54883393616821
 20
-31.39946622429662
 30
0.0
  0
VERTEX
  8
0
 10
-60.45434761015393
 20
-35.11616544567069
 30
0.0
  0
VERTEX
  8
0
 10
-64.39187848562479
 20
-39.18909427506972
 30
0.0
  0
SEQEND
  8
0
  0
POLYLINE
  8
0
 62
0
 70
0
 66
1
 10
0.0
 20
0.0
 30
0.0
  0
VERTEX
  8
0
 10
-20.788632984236695
 20
-11.982232953976588
 30
0.0
  0
VERTEX
  8
0
 10
-18.437940999999995
 20
-9.053342532560055
 30
0.0
  0
SEQEND
  8
0
  0
LINE
  8
0
 62
0
 10
-5.815750680519416
 20
19.0
 30
0.0
 11
4.184249319480584
 21
19.0
 31
0.0
  0
ARC
  8
0
 62
0
 10
4.184249319480585
 20
9.000000000000002
 30
0.0
 40
10.0
 50
0.0
 51
90.00000000000001
  0
POLYLINE
  8
0
 62
0
 70
0
 66
1
 10
0.0
 20
0.0
 30
0.0
  0
VERTEX
  8
0
 10
-95.0
 20
-100.0
 30
0.0
  0
VERTEX
  8
0
 10
-94.53903132593146
 20
-95.38740760261933
 30
0.0
  0
VERTEX
  8
0
 10
-93.89047145807551
 20
-90.67255281072906
 30
0.0
  0
VERTEX
  8
0
 10
-93.0586006951155
 20
-85.87193504204366
 30
0.0
  0
VERTEX
  8
0
 10
-92.04780700733419
 20
-81.00205628239922
 30
0.0
  0
VERTEX
  8
0
 10
-90.8625729887677
 20
-76.07940102848667
 30
0.0
  0
VERTEX
  8
0
 10
-89.50746307190603
 20
-71.12041784040738
 30
0.0
  0
VERTEX
  8
0
 10
-87.98711104648758
 20
-66.14150254177342
 30
0.0
  0
VERTEX
  8
0
 10
-86.30620791978046
 20
-61.158983096092285
 30
0.0
  0
VERTEX
  8
0
 10
-84.46949015158812
 20
-56.18910617976573
 30
0.0
  0
VERTEX
  8
0
 10
-82.48172829309812
 20
-51.24802546424364
 30
0.0
  0
VERTEX
  8
0
 10
-80.34771605464694
 20
-46.35179161274838
 30
0.0
  0
VERTEX
  8
0
 10
-78.07225982352637
 20
-41.516343990551555
 30
0.0
  0
VERTEX
  8
0
 10
-75.66016864914081
 20
-36.7575040820707
 30
0.0
  0
VERTEX
  8
0
 10
-73.11624470915683
 20
-32.09097060306954
 30
0.0
  0
VERTEX
  8
0
 10
-70.44527426679072
 20
-27.53231629200349
 30
0.0
  0
VERTEX
  8
0
 10
-67.65201912606939
 20
-23.096986361053133
 30
0.0
  0
VERTEX
  8
0
 10
-64.74120858878865
 20
-18.80029858462979
 30
0.0
  0
VERTEX
  8
0
 10
-61.717531913990676
 20
-14.657445001111425
 30
0.0
  0
VERTEX
  8
0
 10
-58.58563127809325
 20
-10.683495202262955
 30
0.0
  0
VERTEX
  8
0
 10
-55.35009523133396
 20
-6.893401184197725
 30
0.0
  0
VERTEX
  8
0
 10
-52.01545264394125
 20
-3.3020037338315933
 30
0.0
  0
VERTEX
  8
0
 10
-48.58616713341188
 20
0.07595967445034119
 30
0.0
  0
VERTEX
  8
0
 10
-45.066631962455695
 20
3.2258454957707032
 30
0.0
  0
VERTEX
  8
0
 10
-41.461165395560634
 20
6.1330932671724465
 30
0.0
  0
VERTEX
  8
0
 10
-37.77400650072568
 20
8.783213314574716
 30
0.0
  0
VERTEX
  8
0
 10
-34.0093113816991
 20
11.161773030085604
 30
0.0
  0
VERTEX
  8
0
 10
-30.171149825035286
 20
13.254381731596919
 30
0.0
  0
VERTEX
  8
0
 10
-26.263502345436347
 20
15.0466741121121
 30
0.0
  0
VERTEX
  8
0
 10
-22.2902576121619
 20
16.524292281201205
 30
0.0
  0
VERTEX
  8
0
 10
-18.25521023876378
 20
17.672866395342762
 30
0.0
  0
VERTEX
  8
0
 10
-14.162058918018298
 20
18.477993867691673
 30
0.0
  0
VERTEX
  8
0
 10
-10.014404883676253
 20
18.925217141000644
 30
0.0
  0
VERTEX
  8
0
 10
-5.815750680519417
 20
19.0
 30
0.0
  0
SEQEND
  8
0
  0
LINE
  8
0
 62
0
 10
14.184249319480584
 20
9.000000000000002
 30
0.0
 11
14.184249319480584
 21
-9.0
 31
0.0
  0
ARC
  8
0
 62
0
 10
-90.0
 20
-100.0
 30
0.0
 40
5.0
 50
180.0
 51
-0.0
  0
ARC
  8
0
 62
0
 10
4.184249319480585
 20
-9.000000000000002
 30
0.0
 40
10.0
 50
-89.99999999999999
 51
0.0
  0
POLYLINE
  8
0
 62
0
 70
0
 66
1
 10
0.0
 20
0.0
 30
0.0
  0
VERTEX
  8
0
 10
-85.0
 20
-100.0
 30
0.0
  0
VERTEX
  8
0
 10
-83.65911193642755
 20
-95.673089847808
 30
0.0
  0
VERTEX
  8
0
 10
-82.25218798102043
 20
-91.299525038464
 30
0.0
  0
VERTEX
  8
0
 10
-80.76798844674393
 20
-86.897205202816
 30
0.0
  0
VERTEX
  8
0
 10
-79.1952736465634
 20
-82.484029971712
 30
0.0
  0
VERTEX
  8
0
 10
-77.52280389344415
 20
-78.077898976
 30
0.0
  0
VERTEX
  8
0
 10
-75.73933950035149
 20
-73.696711846528
 30
0.0
  0
VERTEX
  8
0
 10
-73.83364078025075
 20
-69.35836821414401
 30
0.0
  0
VERTEX
  8
0
 10
-71.79446804610726
 20
-65.080767709696
 30
0.0
  0
VERTEX
  8
0
 10
-69.6105816108863
 20
-60.881809964032
 30
0.0
  0
VERTEX
  8
0
 10
-67.27074178755323
 20
-56.779394608
 30
0.0
  0
VERTEX
  8
0
 10
-64.76370888907336
 20
-52.791421272448005
 30
0.0
  0
VERTEX
  8
0
 10
-62.07824322841199
 20
-48.935789588224004
 30
0.0
  0
VERTEX
  8
0
 10
-59.20310511853447
 20
-45.230399186175994
 30
0.0
  0
VERTEX
  8
0
 10
-56.127054872406084
 20
-41.693149697151995
 30
0.0
  0
VERTEX
  8
0
 10
-52.838852802992186
 20
-38.341940752
 30
0.0
  0
VERTEX
  8
0
 10
-49.327259223258075
 20
-35.19467198156799
 30
0.0
  0
VERTEX
  8
0
 10
-45.58103444616907
 20
-32.269243016703996
 30
0.0
  0
VERTEX
  8
0
 10
-41.58893878469051
 20
-29.583553488256
 30
0.0
  0
VERTEX
  8
0
 10
-37.33973255178769
 20
-27.155503027072
 30
0.0
  0
VERTEX
  8
0
 10
-32.82217606042593
 20
-25.002991264000002
 30
0.0
  0
VERTEX
  8
0
 10
-28.025029623570582
 20
-23.143917829887997
 30
0.0
  0
VERTEX
  8
0
 10
-22.937053554186924
 20
-21.596182355584006
 30
0.0
  0
VERTEX
  8
0
 10
-17.5470081652403
 20
-20.377684471935993
 30
0.0
  0
VERTEX
  8
0
 10
-11.843653769696033
 20
-19.506323809791994
 30
0.0
  0
VERTEX
  8
0
 10
-5.815750680519416
 20
-19.0
 30
0.0
  0
SEQEND
  8
0
  0
LINE
  8
0
 62
0
 10
4.184249319480584
 20
-19.0
 30
0.0
 11
-5.815750680519416
 21
-19.0
 31
0.0
  0
LINE
  8
0
 62
0
 10
-6.2
 20
-11.5
 30
0.0
 11
-6.2
 21
11.5
 31
0.0
  0
LINE
  8
0
 62
0
 10
6.2
 20
-11.5
 30
0.0
 11
-6.2
 21
-11.5
 31
0.0
  0
LINE
  8
0
 62
0
 10
6.2
 20
11.5
 30
0.0
 11
6.2
 21
-11.5
 31
0.0
  0
LINE
  8
0
 62
0
 10
-6.2
 20
11.5
 30
0.0
 11
6.2
 21
11.5
 31
0.0
  0
CIRCLE
  8
0
 62
0
 10
0.0
 20
-13.62
 30
0.0
 40
1.2
  0
CIRCLE
  8
0
 62
0
 10
0.0
 20
13.62
 30
0.0
 40
1.2
  0
ENDBLK
  0
ENDSEC
  0
SECTION
  2
ENTITIES
  0
INSERT
  2
FILLET001
  8
0
 62
0
 10
0.0
 20
0.0
 30
0.0
  0
ENDSEC
  0
EOF
